<mxfile host="app.diagrams.net" modified="2023-08-20T14:15:35.763Z" agent="Mozilla/5.0 (Macintosh; Intel Mac OS X 10_15_7) AppleWebKit/537.36 (KHTML, like Gecko) Chrome/115.0.0.0 Safari/537.36" etag="DPV3J8ncA4hD1QipNYsl" version="21.5.2" type="device">
  <diagram name="Page-1" id="9UPKOZhcNOca_EjjnHMy">
    <mxGraphModel dx="2284" dy="1876" grid="1" gridSize="10" guides="1" tooltips="1" connect="1" arrows="1" fold="1" page="1" pageScale="1" pageWidth="850" pageHeight="1100" math="0" shadow="0">
      <root>
        <mxCell id="0" />
        <mxCell id="1" parent="0" />
        <mxCell id="XKI5jN5XKfjcoto1naSS-7" value="" style="rounded=0;whiteSpace=wrap;html=1;fillColor=#FFFFFF;strokeColor=#cfcfcf;" vertex="1" parent="1">
          <mxGeometry x="-520" y="-40" width="1640" height="760" as="geometry" />
        </mxCell>
        <mxCell id="wNulhjeVRchKM3TbgUKb-23" value="AWS Cloud" style="sketch=0;outlineConnect=0;gradientColor=none;html=1;whiteSpace=wrap;fontSize=12;fontStyle=0;shape=mxgraph.aws4.group;grIcon=mxgraph.aws4.group_aws_cloud;strokeColor=#AAB7B8;fillColor=none;verticalAlign=top;align=left;spacingLeft=30;fontColor=#AAB7B8;dashed=0;" parent="1" vertex="1">
          <mxGeometry x="-320" width="1400" height="680" as="geometry" />
        </mxCell>
        <mxCell id="wNulhjeVRchKM3TbgUKb-30" value="Region" style="points=[[0,0],[0.25,0],[0.5,0],[0.75,0],[1,0],[1,0.25],[1,0.5],[1,0.75],[1,1],[0.75,1],[0.5,1],[0.25,1],[0,1],[0,0.75],[0,0.5],[0,0.25]];outlineConnect=0;gradientColor=none;html=1;whiteSpace=wrap;fontSize=12;fontStyle=0;container=0;pointerEvents=0;collapsible=0;recursiveResize=0;shape=mxgraph.aws4.group;grIcon=mxgraph.aws4.group_region;strokeColor=#147EBA;fillColor=none;verticalAlign=top;align=left;spacingLeft=30;fontColor=#147EBA;dashed=1;" parent="1" vertex="1">
          <mxGeometry x="-80" y="80" width="1080" height="520" as="geometry" />
        </mxCell>
        <mxCell id="XKI5jN5XKfjcoto1naSS-4" value="" style="endArrow=classic;html=1;rounded=0;" edge="1" parent="1">
          <mxGeometry width="50" height="50" relative="1" as="geometry">
            <mxPoint x="500" y="320" as="sourcePoint" />
            <mxPoint x="550" y="270" as="targetPoint" />
          </mxGeometry>
        </mxCell>
        <mxCell id="XKI5jN5XKfjcoto1naSS-8" value="" style="group" vertex="1" connectable="0" parent="1">
          <mxGeometry x="-76" y="400" width="150" height="119" as="geometry" />
        </mxCell>
        <mxCell id="XKI5jN5XKfjcoto1naSS-1" value="" style="sketch=0;outlineConnect=0;fontColor=#232F3E;gradientColor=none;fillColor=#B0084D;strokeColor=none;dashed=0;verticalLabelPosition=bottom;verticalAlign=top;align=center;html=1;fontSize=12;fontStyle=0;aspect=fixed;pointerEvents=1;shape=mxgraph.aws4.systems_manager_session_manager;" vertex="1" parent="XKI5jN5XKfjcoto1naSS-8">
          <mxGeometry x="36" width="78" height="78" as="geometry" />
        </mxCell>
        <mxCell id="XKI5jN5XKfjcoto1naSS-6" value="&lt;font color=&quot;#000000&quot; style=&quot;&quot;&gt;System Manager&lt;br&gt;&lt;font style=&quot;font-size: 15px;&quot;&gt;Session Manager&lt;/font&gt;&lt;br&gt;&lt;/font&gt;" style="text;html=1;align=center;verticalAlign=middle;whiteSpace=wrap;rounded=0;labelBackgroundColor=none;fillColor=none;fontSize=17;" vertex="1" parent="XKI5jN5XKfjcoto1naSS-8">
          <mxGeometry y="89" width="150" height="30" as="geometry" />
        </mxCell>
        <mxCell id="XKI5jN5XKfjcoto1naSS-10" value="Internet" style="sketch=0;outlineConnect=0;fontColor=#232F3E;gradientColor=none;strokeColor=#232F3E;fillColor=#ffffff;dashed=0;verticalLabelPosition=bottom;verticalAlign=top;align=center;html=1;fontSize=12;fontStyle=0;aspect=fixed;shape=mxgraph.aws4.resourceIcon;resIcon=mxgraph.aws4.internet;" vertex="1" parent="1">
          <mxGeometry x="-390" y="290" width="60" height="60" as="geometry" />
        </mxCell>
        <mxCell id="XKI5jN5XKfjcoto1naSS-11" value="User" style="sketch=0;outlineConnect=0;fontColor=#232F3E;gradientColor=none;strokeColor=#232F3E;fillColor=#ffffff;dashed=0;verticalLabelPosition=bottom;verticalAlign=top;align=center;html=1;fontSize=12;fontStyle=0;aspect=fixed;shape=mxgraph.aws4.resourceIcon;resIcon=mxgraph.aws4.user;" vertex="1" parent="1">
          <mxGeometry x="-490" y="290" width="60" height="60" as="geometry" />
        </mxCell>
        <mxCell id="XKI5jN5XKfjcoto1naSS-12" value="" style="endArrow=block;startArrow=block;html=1;rounded=0;strokeColor=#000000;targetPerimeterSpacing=0;sourcePerimeterSpacing=0;strokeWidth=2;endFill=1;startFill=1;" edge="1" parent="1" source="XKI5jN5XKfjcoto1naSS-11" target="XKI5jN5XKfjcoto1naSS-10">
          <mxGeometry width="50" height="50" relative="1" as="geometry">
            <mxPoint x="150" y="320" as="sourcePoint" />
            <mxPoint x="-400" y="320" as="targetPoint" />
          </mxGeometry>
        </mxCell>
        <mxCell id="XKI5jN5XKfjcoto1naSS-14" value="" style="endArrow=block;startArrow=block;html=1;rounded=0;strokeColor=#030303;strokeWidth=2;startFill=1;endFill=1;" edge="1" parent="1" source="XKI5jN5XKfjcoto1naSS-10" target="XKI5jN5XKfjcoto1naSS-9">
          <mxGeometry width="50" height="50" relative="1" as="geometry">
            <mxPoint x="370" y="330" as="sourcePoint" />
            <mxPoint x="420" y="280" as="targetPoint" />
          </mxGeometry>
        </mxCell>
        <mxCell id="XKI5jN5XKfjcoto1naSS-19" value="Internet" style="sketch=0;outlineConnect=0;fontColor=#232F3E;gradientColor=none;strokeColor=#232F3E;fillColor=#ffffff;dashed=0;verticalLabelPosition=bottom;verticalAlign=top;align=center;html=1;fontSize=12;fontStyle=0;aspect=fixed;shape=mxgraph.aws4.resourceIcon;resIcon=mxgraph.aws4.internet;" vertex="1" parent="1">
          <mxGeometry x="-390" y="410" width="60" height="60" as="geometry" />
        </mxCell>
        <mxCell id="XKI5jN5XKfjcoto1naSS-20" value="Sys. Manager" style="sketch=0;outlineConnect=0;fontColor=#232F3E;gradientColor=none;strokeColor=#232F3E;fillColor=#ffffff;dashed=0;verticalLabelPosition=bottom;verticalAlign=top;align=center;html=1;fontSize=12;fontStyle=0;aspect=fixed;shape=mxgraph.aws4.resourceIcon;resIcon=mxgraph.aws4.user;" vertex="1" parent="1">
          <mxGeometry x="-490" y="410" width="60" height="60" as="geometry" />
        </mxCell>
        <mxCell id="XKI5jN5XKfjcoto1naSS-21" value="" style="endArrow=block;startArrow=block;html=1;rounded=0;strokeColor=#000000;targetPerimeterSpacing=0;sourcePerimeterSpacing=0;strokeWidth=2;endFill=1;startFill=1;" edge="1" parent="1" source="XKI5jN5XKfjcoto1naSS-20" target="XKI5jN5XKfjcoto1naSS-19">
          <mxGeometry width="50" height="50" relative="1" as="geometry">
            <mxPoint x="150" y="440" as="sourcePoint" />
            <mxPoint x="-400" y="440" as="targetPoint" />
          </mxGeometry>
        </mxCell>
        <mxCell id="wNulhjeVRchKM3TbgUKb-45" value="Availability Zone 2" style="fillColor=none;strokeColor=#147EBA;dashed=1;verticalAlign=top;fontStyle=0;fontColor=#147EBA;whiteSpace=wrap;html=1;" parent="1" vertex="1">
          <mxGeometry x="680" y="120" width="240" height="440" as="geometry" />
        </mxCell>
        <mxCell id="wNulhjeVRchKM3TbgUKb-36" value="Availability Zone 1" style="fillColor=none;strokeColor=#147EBA;dashed=1;verticalAlign=top;fontStyle=0;fontColor=#147EBA;whiteSpace=wrap;html=1;" parent="1" vertex="1">
          <mxGeometry x="160" y="120" width="480" height="440" as="geometry" />
        </mxCell>
        <mxCell id="wNulhjeVRchKM3TbgUKb-37" value="VPC" style="points=[[0,0],[0.25,0],[0.5,0],[0.75,0],[1,0],[1,0.25],[1,0.5],[1,0.75],[1,1],[0.75,1],[0.5,1],[0.25,1],[0,1],[0,0.75],[0,0.5],[0,0.25]];outlineConnect=0;gradientColor=none;html=1;whiteSpace=wrap;fontSize=12;fontStyle=0;container=1;pointerEvents=0;collapsible=0;recursiveResize=0;shape=mxgraph.aws4.group;grIcon=mxgraph.aws4.group_vpc;strokeColor=#248814;fillColor=none;verticalAlign=top;align=left;spacingLeft=30;fontColor=#AAB7B8;dashed=0;" parent="1" vertex="1">
          <mxGeometry x="120" y="160" width="840" height="360" as="geometry" />
        </mxCell>
        <mxCell id="wNulhjeVRchKM3TbgUKb-38" value="Public subnet" style="points=[[0,0],[0.25,0],[0.5,0],[0.75,0],[1,0],[1,0.25],[1,0.5],[1,0.75],[1,1],[0.75,1],[0.5,1],[0.25,1],[0,1],[0,0.75],[0,0.5],[0,0.25]];outlineConnect=0;gradientColor=none;html=1;whiteSpace=wrap;fontSize=12;fontStyle=0;container=1;pointerEvents=0;collapsible=0;recursiveResize=0;shape=mxgraph.aws4.group;grIcon=mxgraph.aws4.group_security_group;grStroke=0;strokeColor=#248814;fillColor=#E9F3E6;verticalAlign=top;align=left;spacingLeft=30;fontColor=#248814;dashed=0;" parent="wNulhjeVRchKM3TbgUKb-37" vertex="1">
          <mxGeometry x="80" y="40" width="200" height="280" as="geometry" />
        </mxCell>
        <mxCell id="wNulhjeVRchKM3TbgUKb-39" value="EC2 instance contents" style="points=[[0,0],[0.25,0],[0.5,0],[0.75,0],[1,0],[1,0.25],[1,0.5],[1,0.75],[1,1],[0.75,1],[0.5,1],[0.25,1],[0,1],[0,0.75],[0,0.5],[0,0.25]];outlineConnect=0;gradientColor=none;html=1;whiteSpace=wrap;fontSize=12;fontStyle=0;container=1;pointerEvents=0;collapsible=0;recursiveResize=0;shape=mxgraph.aws4.group;grIcon=mxgraph.aws4.group_ec2_instance_contents;strokeColor=#D86613;fillColor=none;verticalAlign=top;align=left;spacingLeft=30;fontColor=#D86613;dashed=0;" parent="wNulhjeVRchKM3TbgUKb-38" vertex="1">
          <mxGeometry x="40" y="40" width="120" height="160" as="geometry" />
        </mxCell>
        <mxCell id="XKI5jN5XKfjcoto1naSS-3" value="&lt;font color=&quot;#000000&quot; style=&quot;font-size: 17px;&quot;&gt;Wordpress&lt;/font&gt;" style="text;html=1;align=left;verticalAlign=middle;whiteSpace=wrap;rounded=0;labelBackgroundColor=none;fillColor=none;fontSize=17;" vertex="1" parent="wNulhjeVRchKM3TbgUKb-39">
          <mxGeometry x="20" y="110" width="60" height="30" as="geometry" />
        </mxCell>
        <mxCell id="wNulhjeVRchKM3TbgUKb-40" value="Private subnet 1" style="points=[[0,0],[0.25,0],[0.5,0],[0.75,0],[1,0],[1,0.25],[1,0.5],[1,0.75],[1,1],[0.75,1],[0.5,1],[0.25,1],[0,1],[0,0.75],[0,0.5],[0,0.25]];outlineConnect=0;gradientColor=none;html=1;whiteSpace=wrap;fontSize=12;fontStyle=0;container=1;pointerEvents=0;collapsible=0;recursiveResize=0;shape=mxgraph.aws4.group;grIcon=mxgraph.aws4.group_security_group;grStroke=0;strokeColor=#147EBA;fillColor=#E6F2F8;verticalAlign=top;align=left;spacingLeft=30;fontColor=#147EBA;dashed=0;" parent="wNulhjeVRchKM3TbgUKb-37" vertex="1">
          <mxGeometry x="320" y="40" width="160" height="280" as="geometry" />
        </mxCell>
        <mxCell id="wNulhjeVRchKM3TbgUKb-41" value="" style="sketch=0;outlineConnect=0;fontColor=#232F3E;gradientColor=none;fillColor=#2E27AD;strokeColor=none;dashed=0;verticalLabelPosition=bottom;verticalAlign=top;align=center;html=1;fontSize=12;fontStyle=0;aspect=fixed;pointerEvents=1;shape=mxgraph.aws4.rds_mariadb_instance;" parent="wNulhjeVRchKM3TbgUKb-40" vertex="1">
          <mxGeometry x="30" y="83.5" width="73" height="73" as="geometry" />
        </mxCell>
        <mxCell id="XKI5jN5XKfjcoto1naSS-9" value="Internet&#xa;gateway" style="sketch=0;outlineConnect=0;fontColor=#232F3E;gradientColor=none;strokeColor=#232F3E;fillColor=#ffffff;dashed=0;verticalLabelPosition=bottom;verticalAlign=top;align=center;html=1;fontSize=12;fontStyle=0;aspect=fixed;shape=mxgraph.aws4.resourceIcon;resIcon=mxgraph.aws4.internet_gateway;" vertex="1" parent="wNulhjeVRchKM3TbgUKb-37">
          <mxGeometry x="-30" y="130" width="60" height="60" as="geometry" />
        </mxCell>
        <mxCell id="XKI5jN5XKfjcoto1naSS-15" value="" style="endArrow=block;startArrow=block;html=1;rounded=0;exitX=1;exitY=0.5;exitDx=0;exitDy=0;strokeColor=#6666FF;strokeWidth=2;endFill=1;startFill=1;" edge="1" parent="wNulhjeVRchKM3TbgUKb-37" source="wNulhjeVRchKM3TbgUKb-39" target="wNulhjeVRchKM3TbgUKb-41">
          <mxGeometry width="50" height="50" relative="1" as="geometry">
            <mxPoint x="250" y="170" as="sourcePoint" />
            <mxPoint x="300" y="120" as="targetPoint" />
          </mxGeometry>
        </mxCell>
        <mxCell id="wNulhjeVRchKM3TbgUKb-42" value="Private subnet 2" style="points=[[0,0],[0.25,0],[0.5,0],[0.75,0],[1,0],[1,0.25],[1,0.5],[1,0.75],[1,1],[0.75,1],[0.5,1],[0.25,1],[0,1],[0,0.75],[0,0.5],[0,0.25]];outlineConnect=0;gradientColor=none;html=1;whiteSpace=wrap;fontSize=12;fontStyle=0;container=1;pointerEvents=0;collapsible=0;recursiveResize=0;shape=mxgraph.aws4.group;grIcon=mxgraph.aws4.group_security_group;grStroke=0;strokeColor=#147EBA;fillColor=#E6F2F8;verticalAlign=top;align=left;spacingLeft=30;fontColor=#147EBA;dashed=0;" parent="1" vertex="1">
          <mxGeometry x="720" y="200" width="160" height="280" as="geometry" />
        </mxCell>
        <mxCell id="wNulhjeVRchKM3TbgUKb-17" value="&lt;font color=&quot;#000000&quot; style=&quot;font-size: 17px;&quot;&gt;MariaDB&lt;/font&gt;" style="text;html=1;align=left;verticalAlign=middle;whiteSpace=wrap;rounded=0;labelBackgroundColor=none;fillColor=none;fontSize=17;" parent="1" vertex="1">
          <mxGeometry x="260" y="320" width="60" height="30" as="geometry" />
        </mxCell>
        <mxCell id="wNulhjeVRchKM3TbgUKb-16" value="&lt;font color=&quot;#000000&quot; style=&quot;font-size: 17px;&quot;&gt;Apache&lt;/font&gt;" style="text;html=1;align=left;verticalAlign=middle;whiteSpace=wrap;rounded=0;labelBackgroundColor=none;fillColor=none;fontSize=17;" parent="1" vertex="1">
          <mxGeometry x="260" y="290" width="60" height="30" as="geometry" />
        </mxCell>
        <mxCell id="XKI5jN5XKfjcoto1naSS-23" value="AWS Account" style="points=[[0,0],[0.25,0],[0.5,0],[0.75,0],[1,0],[1,0.25],[1,0.5],[1,0.75],[1,1],[0.75,1],[0.5,1],[0.25,1],[0,1],[0,0.75],[0,0.5],[0,0.25]];outlineConnect=0;gradientColor=none;html=1;whiteSpace=wrap;fontSize=12;fontStyle=0;container=1;pointerEvents=0;collapsible=0;recursiveResize=0;shape=mxgraph.aws4.group;grIcon=mxgraph.aws4.group_account;strokeColor=#CD2264;fillColor=none;verticalAlign=top;align=left;spacingLeft=30;fontColor=#CD2264;dashed=0;" vertex="1" parent="1">
          <mxGeometry x="-280" y="40" width="1320" height="600" as="geometry" />
        </mxCell>
        <mxCell id="XKI5jN5XKfjcoto1naSS-24" value="" style="sketch=0;outlineConnect=0;fontColor=#232F3E;gradientColor=none;fillColor=#BF0816;strokeColor=none;dashed=0;verticalLabelPosition=bottom;verticalAlign=top;align=center;html=1;fontSize=12;fontStyle=0;aspect=fixed;pointerEvents=1;shape=mxgraph.aws4.role;" vertex="1" parent="XKI5jN5XKfjcoto1naSS-23">
          <mxGeometry x="40" y="378" width="78" height="44" as="geometry" />
        </mxCell>
        <mxCell id="XKI5jN5XKfjcoto1naSS-29" value="" style="sketch=0;points=[[0,0,0],[0.25,0,0],[0.5,0,0],[0.75,0,0],[1,0,0],[0,1,0],[0.25,1,0],[0.5,1,0],[0.75,1,0],[1,1,0],[0,0.25,0],[0,0.5,0],[0,0.75,0],[1,0.25,0],[1,0.5,0],[1,0.75,0]];outlineConnect=0;fontColor=#232F3E;gradientColor=#F54749;gradientDirection=north;fillColor=#C7131F;strokeColor=#ffffff;dashed=0;verticalLabelPosition=bottom;verticalAlign=top;align=center;html=1;fontSize=12;fontStyle=0;aspect=fixed;shape=mxgraph.aws4.resourceIcon;resIcon=mxgraph.aws4.identity_and_access_management;" vertex="1" parent="XKI5jN5XKfjcoto1naSS-23">
          <mxGeometry x="50" y="471" width="78" height="78" as="geometry" />
        </mxCell>
        <mxCell id="XKI5jN5XKfjcoto1naSS-35" value="" style="endArrow=block;startArrow=none;html=1;rounded=0;strokeWidth=2;strokeColor=#030303;entryX=1;entryY=0.5;entryDx=0;entryDy=0;entryPerimeter=0;startFill=0;endFill=1;" edge="1" parent="XKI5jN5XKfjcoto1naSS-23" source="XKI5jN5XKfjcoto1naSS-24" target="XKI5jN5XKfjcoto1naSS-29">
          <mxGeometry width="50" height="50" relative="1" as="geometry">
            <mxPoint x="127" y="410" as="sourcePoint" />
            <mxPoint x="250" y="409" as="targetPoint" />
            <Array as="points">
              <mxPoint x="170" y="400" />
              <mxPoint x="170" y="460" />
              <mxPoint x="170" y="510" />
            </Array>
          </mxGeometry>
        </mxCell>
        <mxCell id="XKI5jN5XKfjcoto1naSS-25" value="&lt;font color=&quot;#000000&quot; style=&quot;&quot;&gt;Role&lt;br&gt;&lt;/font&gt;" style="text;html=1;align=center;verticalAlign=middle;whiteSpace=wrap;rounded=0;labelBackgroundColor=none;fillColor=none;fontSize=17;" vertex="1" parent="1">
          <mxGeometry x="-270" y="460" width="150" height="30" as="geometry" />
        </mxCell>
        <mxCell id="XKI5jN5XKfjcoto1naSS-30" value="&lt;font color=&quot;#000000&quot; style=&quot;&quot;&gt;&lt;font style=&quot;&quot;&gt;identity &amp;amp; Access&lt;br&gt;&lt;/font&gt;&lt;font style=&quot;font-size: 15px;&quot;&gt;IAM&lt;/font&gt;&lt;br&gt;&lt;/font&gt;" style="text;html=1;align=center;verticalAlign=middle;whiteSpace=wrap;rounded=0;labelBackgroundColor=none;fillColor=none;fontSize=17;" vertex="1" parent="1">
          <mxGeometry x="-260" y="600" width="150" height="30" as="geometry" />
        </mxCell>
        <mxCell id="XKI5jN5XKfjcoto1naSS-31" value="" style="endArrow=classic;startArrow=classic;html=1;rounded=0;strokeWidth=2;strokeColor=#000000;" edge="1" parent="1" source="XKI5jN5XKfjcoto1naSS-19" target="XKI5jN5XKfjcoto1naSS-24">
          <mxGeometry width="50" height="50" relative="1" as="geometry">
            <mxPoint x="70" y="330" as="sourcePoint" />
            <mxPoint x="120" y="280" as="targetPoint" />
            <Array as="points">
              <mxPoint x="-290" y="440" />
            </Array>
          </mxGeometry>
        </mxCell>
        <mxCell id="XKI5jN5XKfjcoto1naSS-34" value="" style="endArrow=block;startArrow=none;html=1;rounded=0;strokeWidth=2;strokeColor=#030303;startFill=0;endFill=1;" edge="1" parent="1" source="XKI5jN5XKfjcoto1naSS-24" target="XKI5jN5XKfjcoto1naSS-1">
          <mxGeometry width="50" height="50" relative="1" as="geometry">
            <mxPoint x="70" y="330" as="sourcePoint" />
            <mxPoint x="120" y="280" as="targetPoint" />
          </mxGeometry>
        </mxCell>
        <mxCell id="XKI5jN5XKfjcoto1naSS-5" value="" style="edgeStyle=orthogonalEdgeStyle;rounded=0;orthogonalLoop=1;jettySize=auto;html=1;entryX=0.5;entryY=1;entryDx=0;entryDy=0;strokeColor=#000000;strokeWidth=2;endArrow=block;endFill=1;" edge="1" parent="1" source="XKI5jN5XKfjcoto1naSS-1" target="wNulhjeVRchKM3TbgUKb-39">
          <mxGeometry relative="1" as="geometry" />
        </mxCell>
      </root>
    </mxGraphModel>
  </diagram>
</mxfile>
